<?xml version="1.0" encoding="UTF-8" standalone="no"?>
<!-- Created with Inkscape (http://www.inkscape.org/) -->

<svg
   xmlns:dc="http://purl.org/dc/elements/1.1/"
   xmlns:cc="http://creativecommons.org/ns#"
   xmlns:rdf="http://www.w3.org/1999/02/22-rdf-syntax-ns#"
   xmlns:svg="http://www.w3.org/2000/svg"
   xmlns="http://www.w3.org/2000/svg"
   xmlns:sodipodi="http://sodipodi.sourceforge.net/DTD/sodipodi-0.dtd"
   xmlns:inkscape="http://www.inkscape.org/namespaces/inkscape"
   id="svg3094"
   version="1.1"
   inkscape:version="0.48.2 r9819"
   width="530"
   height="626"
   sodipodi:docname="bear.svg">
  <metadata
     id="metadata3100">
    <rdf:RDF>
      <cc:Work
         rdf:about="">
        <dc:format>image/svg+xml</dc:format>
        <dc:type
           rdf:resource="http://purl.org/dc/dcmitype/StillImage" />
        <dc:title></dc:title>
      </cc:Work>
    </rdf:RDF>
  </metadata>
  <defs
     id="defs3098" />
  <sodipodi:namedview
     pagecolor="#ffffff"
     bordercolor="#666666"
     borderopacity="1"
     objecttolerance="10"
     gridtolerance="10"
     guidetolerance="10"
     inkscape:pageopacity="0"
     inkscape:pageshadow="2"
     inkscape:window-width="1920"
     inkscape:window-height="1005"
     id="namedview3096"
     showgrid="false"
     inkscape:zoom="0.28284271"
     inkscape:cx="107.25039"
     inkscape:cy="349.86863"
     inkscape:window-x="-9"
     inkscape:window-y="-9"
     inkscape:window-maximized="1"
     inkscape:current-layer="layer12"
     showguides="true"
     inkscape:guide-bbox="true" />
  <g
     inkscape:groupmode="layer"
     id="layer8"
     inkscape:label="body"
     style="display:none">
    <path
       sodipodi:type="arc"
       style="fill:#c87137;stroke:#000000;stroke-width:17.22933388;stroke-linecap:round;stroke-linejoin:round;stroke-miterlimit:4;stroke-opacity:1;stroke-dasharray:none;display:inline"
       id="path3812-7-4"
       sodipodi:cx="-2774"
       sodipodi:cy="226"
       sodipodi:rx="270"
       sodipodi:ry="286"
       d="m -2504,226 a 270,286 0 1 1 -540,0 270,286 0 1 1 540,0 z"
       transform="matrix(0.63097841,-0.11683494,0.08694223,0.51778741,2996.571,-1306.8492)" />
    <path
       sodipodi:type="arc"
       style="fill:#c87137;stroke:#000000;stroke-width:17.22933388;stroke-linecap:round;stroke-linejoin:round;stroke-miterlimit:4;stroke-opacity:1;stroke-dasharray:none;display:inline"
       id="path3812-7-4-0"
       sodipodi:cx="-2774"
       sodipodi:cy="226"
       sodipodi:rx="270"
       sodipodi:ry="286"
       d="m -2504,226 a 270,286 0 1 1 -540,0 270,286 0 1 1 540,0 z"
       transform="matrix(0.63097841,-0.11683494,0.08694223,0.51778741,3832.5709,-1362.8492)" />
    <path
       sodipodi:type="arc"
       style="fill:#c87137;stroke:#000000;stroke-width:6.11748648;stroke-linecap:round;stroke-linejoin:round;stroke-miterlimit:4;stroke-opacity:1;stroke-dasharray:none;display:inline"
       id="path3812-7"
       sodipodi:cx="-2774"
       sodipodi:cy="226"
       sodipodi:rx="270"
       sodipodi:ry="286"
       d="m -2504,226 a 270,286 0 1 1 -540,0 270,286 0 1 1 540,0 z"
       transform="matrix(1.8210827,-0.31526408,0.25092616,1.3971827,6722.8599,-1863.4396)" />
    <path
       sodipodi:type="arc"
       style="fill:#c87137;fill-opacity:1;stroke:#000000;stroke-width:10;stroke-miterlimit:4;stroke-opacity:1;stroke-dasharray:none;display:inline"
       id="path4225"
       sodipodi:cx="-536"
       sodipodi:cy="416"
       sodipodi:rx="660"
       sodipodi:ry="676"
       d="m 124,416 a 660,676 0 1 1 -1320,0 660,676 0 1 1 1320,0 z"
       transform="matrix(0.86123306,-0.13560229,0.13909292,0.65156238,2243.7583,-5.7327775)" />
    <path
       sodipodi:type="arc"
       style="fill:#d38d5f;stroke:#000000;stroke-width:10;stroke-linecap:round;stroke-linejoin:round;stroke-miterlimit:4;stroke-opacity:1;stroke-dasharray:none;display:inline"
       id="path3040"
       sodipodi:cx="-1154"
       sodipodi:cy="1118"
       sodipodi:rx="462"
       sodipodi:ry="382"
       d="m -692,1118 a 462,382 0 1 1 -924,0 462,382 0 1 1 924,0 z"
       transform="matrix(0.98480776,-0.13717841,0.17364818,0.7779774,2800.7661,-693.07731)" />
    <path
       style="fill:none;stroke:#000000;stroke-width:4.74379492;stroke-linecap:butt;stroke-linejoin:miter;stroke-miterlimit:4;stroke-opacity:1;stroke-dasharray:none;display:inline"
       d="m 1724.4365,-3.9854875 c 308.2745,151.5219575 287.9801,379.2660975 256,626.4999975"
       id="path3810"
       inkscape:connector-curvature="0"
       sodipodi:nodetypes="cc" />
  </g>
  <g
     inkscape:groupmode="layer"
     id="layer4"
     inkscape:label="hair"
     style="display:inline" />
  <g
     inkscape:groupmode="layer"
     id="layer12"
     inkscape:label="legs"
     style="display:inline">
    <path
       style="fill:none;stroke:#000000;stroke-width:3.82454944px;stroke-linecap:butt;stroke-linejoin:miter;stroke-opacity:1;display:inline"
       d="M 4.8741,-330.2499 569.3008,-12.02861"
       id="path3170-3"
       inkscape:connector-curvature="0" />
    <path
       sodipodi:type="arc"
       style="fill:#552200;fill-opacity:1;stroke:#000000;stroke-opacity:1;display:inline"
       id="path3198-3"
       sodipodi:cx="341.75"
       sodipodi:cy="139.375"
       sodipodi:rx="70.75"
       sodipodi:ry="18.125"
       d="m 412.5,139.375 a 70.75,18.125 0 1 1 -141.5,0 70.75,18.125 0 1 1 141.5,0 z"
       transform="matrix(6.1996681,0,0,23.910261,-1868.002,-3374.1454)" />
    <path
       style="fill:#000000;stroke:#000000;stroke-width:0.92746121px;stroke-linecap:butt;stroke-linejoin:miter;stroke-opacity:1;display:inline"
       d="m -6.0324,868.11529 18.6848,272.74191 c -1.0436,216.563 -29.138,462.4657 -60.532,623.5072 l 157.8472,-17.1407 c 28.6176,-201.2892 -57.9577,-576.2364 40,-769.00481 74.0859,64.51841 263.2132,183.76001 277.1205,364.67641 10.0674,130.9652 -225.7447,308.3277 -213.1205,400.8877 l 154.4495,31.1051 C 328.9091,1650.1513 480.9618,1443.467 481.0522,1329.1729 481.2029,1138.8554 350.7314,1046.1241 345.9676,850.91161 z"
       id="path4286-7"
       inkscape:connector-curvature="0"
       sodipodi:nodetypes="cccccsccscc"
       inkscape:export-filename="C:\Users\rick\Desktop\rick.png"
       inkscape:export-xdpi="90"
       inkscape:export-ydpi="90" />
    <path
       style="fill:#febe8e;fill-opacity:1;stroke:#000000;stroke-width:10;stroke-linecap:butt;stroke-linejoin:miter;stroke-miterlimit:4;stroke-opacity:1;stroke-dasharray:none;display:inline"
       d="M 133.6815,337.09029 C -27.96,421.4992 -138.8178,487.8216 -197.6841,613.3406 c 56.1876,43.8884 161.9143,57.7248 239.0437,73.691 20.065,4.1535 -79.3691,159.6391 -58.4102,162.6008 L 130.0277,679.0449 -57.8271,563.4067 75.7192,501.3764 145.0993,682.5357 c 0,0 -117.6056,63.9074 -148.286,247.99 116.1599,-15.8988 228.9778,-13.7336 345.6612,-12.8733 L 295.4231,697.9535 C 368.252,647.4399 416.5991,572.4444 438.0379,470.5407 L 561.3804,586.1743 287.7142,697.9535 337.8221,863.6951 376.3666,821.2961 345.531,717.2258 C 475.8081,685.786 647.72344,709.8637 723.26755,605.4466 643.47344,498.1981 551.0936,394.0961 430.329,297.09029 l -92.5069,0 -70.1306,-130.74445 -53.212,22.81973 19.2723,107.92472 z"
       id="path5231-4"
       inkscape:connector-curvature="0"
       sodipodi:nodetypes="ccsccccccccccccccccccccc" />
    <path
       style="fill:#ff0000;stroke:#000000;stroke-width:9.27461243;stroke-linecap:butt;stroke-linejoin:miter;stroke-miterlimit:4;stroke-opacity:1;stroke-dasharray:none;display:inline"
       d="M 58.4059,465.1997 123.786,648.55599 C -50.9111,730.32434 -29.8196,854.92058 -60.5,1013.2656 c 237.63615,78.6435 330.42695,43.3394 485.6612,19.8932 L 298.1098,709.81814 C 370.9387,666.36713 431.2858,557.85727 452.7246,470.2013 290.552,399.52494 135.3686,402.98506 58.4059,465.1997 z"
       id="path5231-2-1"
       inkscape:connector-curvature="0"
       sodipodi:nodetypes="ccccccc" />
    <path
       style="fill:#febe8e;fill-opacity:1;stroke:#000000;stroke-width:10;stroke-linecap:butt;stroke-linejoin:miter;stroke-miterlimit:4;stroke-opacity:1;stroke-dasharray:none;display:inline"
       d="M 569.0234,5.06219 C 603.85864,-76.34758 549.4508,-200.3593 546.6928,-303.1219 l -592.2583,-26.396 c -26.3433,138.77931 -12.9639,277.34573 39.67,374.44724 86.4451,159.47807 278.7762,207.10753 574.9189,-39.86715 z"
       id="path3104-1"
       inkscape:connector-curvature="0"
       sodipodi:nodetypes="cccsc" />
    <path
       sodipodi:type="arc"
       style="opacity:0.50936327;fill:#deaa87;fill-opacity:1;stroke:none;display:inline"
       id="path4180-0-5-1-1-9"
       sodipodi:cx="377"
       sodipodi:cy="476.36218"
       sodipodi:rx="123"
       sodipodi:ry="98"
       d="m 500,476.36218 a 123,98 0 1 1 -246,0 123,98 0 1 1 246,0 z"
       transform="matrix(0.94537327,0,0,0.99104586,17.0788,-522.4996)"
       inkscape:export-filename="C:\Users\rick\Desktop\rick.png"
       inkscape:export-xdpi="90"
       inkscape:export-ydpi="90" />
    <path
       sodipodi:type="arc"
       style="opacity:0.50936327;fill:#deaa87;fill-opacity:1;stroke:none;display:inline"
       id="path4180-0-5-1-1-5-3"
       sodipodi:cx="377"
       sodipodi:cy="476.36218"
       sodipodi:rx="123"
       sodipodi:ry="98"
       d="m 500,476.36218 a 123,98 0 1 1 -246,0 123,98 0 1 1 246,0 z"
       transform="matrix(0.94537327,0,0,0.99104586,-339.9212,-532.4996)"
       inkscape:export-filename="C:\Users\rick\Desktop\rick.png"
       inkscape:export-xdpi="90"
       inkscape:export-ydpi="90" />
    <path
       style="fill:#ffffff;stroke:#000000;stroke-width:5;stroke-linecap:butt;stroke-linejoin:miter;stroke-miterlimit:4;stroke-opacity:1;stroke-dasharray:none;display:inline"
       d="m 280.1005,-0.37972 c 78.6883,57.179 169.8854,38.46331 194.5275,-7.94575 -44.4542,-187.38519 -139.4427,-131.74657 -194.5275,7.94575 z"
       id="path3126-1-8"
       inkscape:connector-curvature="0"
       sodipodi:nodetypes="ccc" />
    <path
       sodipodi:type="arc"
       style="fill:#000000;fill-opacity:1;stroke:#808000;stroke-width:2;stroke-linecap:round;stroke-linejoin:round;stroke-miterlimit:4;stroke-opacity:1;stroke-dasharray:none;display:inline"
       id="path4959-1-5-9-8-6-5"
       sodipodi:cx="309.35922"
       sodipodi:cy="92.055"
       sodipodi:rx="6.3639612"
       sodipodi:ry="6.3639612"
       d="m 315.72318,92.055 a 6.3639612,6.3639612 0 1 1 -12.72792,0 6.3639612,6.3639612 0 1 1 12.72792,0 z"
       transform="matrix(7.6426436,0,0,8.2031317,-1977.1556,-802.5234)"
       inkscape:export-filename="C:\Users\rick\Desktop\rick.png"
       inkscape:export-xdpi="90"
       inkscape:export-ydpi="90" />
    <path
       style="fill:#ffffff;stroke:#000000;stroke-width:5;stroke-linecap:butt;stroke-linejoin:miter;stroke-miterlimit:4;stroke-opacity:1;stroke-dasharray:none;display:inline"
       d="M 106.1123,-10.5616 C 40.4321,40.11334 -27.3806,9.70545 -88.4153,-18.50735 -43.9611,-205.8926 51.0275,-150.25393 106.1123,-10.5616 z"
       id="path3126-7"
       inkscape:connector-curvature="0"
       sodipodi:nodetypes="ccc" />
    <path
       sodipodi:type="arc"
       style="fill:#000000;fill-opacity:1;stroke:#808000;stroke-width:2;stroke-linecap:round;stroke-linejoin:round;stroke-miterlimit:4;stroke-opacity:1;stroke-dasharray:none;display:inline"
       id="path4959-1-5-9-8-6-4-4"
       sodipodi:cx="309.35922"
       sodipodi:cy="92.055"
       sodipodi:rx="6.3639612"
       sodipodi:ry="6.3639612"
       d="m 315.72318,92.055 a 6.3639612,6.3639612 0 1 1 -12.72792,0 6.3639612,6.3639612 0 1 1 12.72792,0 z"
       transform="matrix(7.6426436,0,0,8.2031317,-2360.0307,-806.5777)"
       inkscape:export-filename="C:\Users\rick\Desktop\rick.png"
       inkscape:export-xdpi="90"
       inkscape:export-ydpi="90" />
    <path
       style="fill:#000000;stroke:#000000;stroke-width:1.9502759px;stroke-linecap:butt;stroke-linejoin:miter;stroke-opacity:1;display:inline"
       d="m 255.1051,-112.4736 c 123.5148,-71.34032 212.4037,-15.11966 289.2782,87.66178 l -0.924,-15.96626 C 409.6517,-163.81965 372.0011,-227.4802 265.7626,-155.04419 z"
       id="path5485-4-2-5-4"
       inkscape:connector-curvature="0"
       sodipodi:nodetypes="ccccc"
       inkscape:export-filename="C:\Users\rick\Desktop\rick.png"
       inkscape:export-xdpi="90"
       inkscape:export-ydpi="90" />
    <path
       style="fill:#000000;stroke:#000000;stroke-width:1.43060315px;stroke-linecap:butt;stroke-linejoin:miter;stroke-opacity:1;display:inline"
       d="M 109.9561,-151.7475 C 13.947,-201.1317 -55.147,-162.21383 -114.9022,-91.065 l 0.7183,-11.05239 C -10.1742,-187.291 19.0919,-231.359 101.6719,-181.21632 z"
       id="path5485-4-2-5-0-2"
       inkscape:connector-curvature="0"
       sodipodi:nodetypes="ccccc"
       inkscape:export-filename="C:\Users\rick\Desktop\rick.png"
       inkscape:export-xdpi="90"
       inkscape:export-ydpi="90" />
    <path
       style="fill:#552200;fill-opacity:1;stroke:none;display:inline"
       d="M -44.872,-326.4275 C 504.9434,-218.1352 446.0285,129.32762 525.23884,196.70266 566.46594,125.51106 719.39895,-19.299 564.5175,-338.8505 285.4799,-572.4178 123.7123,-454.1751 -41.1078,-345.0896 z"
       id="path3253-7"
       inkscape:connector-curvature="0"
       sodipodi:nodetypes="ccccc" />
    <path
       style="fill:#552200;stroke:none;display:inline"
       d="M 115.9383,-362.419 C 78.856,-212.0114 -1.1383,-30.87624 -17.973,138.69333 -175.0313,-9.6424 -199.6649,-165.03668 -49.6327,-337.7215 z"
       id="path4025-7"
       inkscape:connector-curvature="0"
       sodipodi:nodetypes="cccc" />
    <path
       style="fill:none;stroke:#000000;stroke-width:10;stroke-linecap:butt;stroke-linejoin:miter;stroke-miterlimit:4;stroke-opacity:1;stroke-dasharray:none;display:inline"
       d="M 488.71774,153.64567 C 455.2836,-48.51852 350.487,-207.2621 101.067,-289.4949 79.5376,-294.4513 -11.611,86.69835 -11.611,86.69835"
       id="path4847-9"
       inkscape:connector-curvature="0"
       sodipodi:nodetypes="ccc" />
    <path
       style="fill:#c87137;stroke:#000000;stroke-width:7.8237052;stroke-linecap:butt;stroke-linejoin:miter;stroke-miterlimit:4;stroke-opacity:1;stroke-dasharray:none;display:inline"
       d="m -2.1733,-337.1341 c -72.7968,45.0243 -121.2303,108.321 -143.9562,190.89844 -139.1993,-123.30284 4.5285,-289.28394 143.9562,-190.89844 z"
       id="path5068-8-3"
       inkscape:connector-curvature="0"
       sodipodi:nodetypes="ccc" />
    <path
       style="fill:#deaa87;stroke:#000000;stroke-width:3.9118526;stroke-linecap:butt;stroke-linejoin:miter;stroke-miterlimit:4;stroke-opacity:1;stroke-dasharray:none;display:inline"
       d="m -46.042,-305.0201 c -33.1742,23.3187 -72.4254,72.7147 -85.5288,114.09135 -84.8423,-76.90845 0.5473,-175.45795 85.5288,-114.09135 z"
       id="path5068-1-9-1"
       inkscape:connector-curvature="0"
       sodipodi:nodetypes="ccc" />
    <path
       style="fill:#a02c2c;stroke:#000000;stroke-width:3.82454944px;stroke-linecap:butt;stroke-linejoin:miter;stroke-opacity:1;display:inline"
       d="M 120.8185,96.07166 C 95.9349,24.45352 249.3739,20.03898 232.7722,103.84249 267.5156,155.09466 89.0915,180.44419 120.8185,96.07166 z"
       id="path3161-9"
       inkscape:connector-curvature="0"
       sodipodi:nodetypes="ccc" />
    <path
       style="fill:#000000;stroke:#000000;stroke-width:3.82454944px;stroke-linecap:butt;stroke-linejoin:miter;stroke-opacity:1;display:inline"
       d="m 130.9654,103.84249 c 6.9021,35.01956 91.7415,24.74015 87.6012,3.71648 -12.3867,-42.64796 -77.9201,-54.61836 -87.6012,-3.71648 z"
       id="path3163-8"
       inkscape:connector-curvature="0"
       sodipodi:nodetypes="ccc" />
    <path
       style="fill:#ffffff;stroke:#000000;stroke-width:3.82454944px;stroke-linecap:butt;stroke-linejoin:miter;stroke-opacity:1;display:inline"
       d="m 130.6271,103.16676 c 35.2209,10.15941 62.2542,6.28316 88.2777,0.67573 -9.2939,-52.05481 -81.6663,-47.40783 -88.2777,-0.67573 z"
       id="path3165-6"
       inkscape:connector-curvature="0"
       sodipodi:nodetypes="ccc" />
    <path
       style="fill:none;stroke:#000000;stroke-width:5;stroke-linecap:butt;stroke-linejoin:miter;stroke-miterlimit:4;stroke-opacity:1;stroke-dasharray:none;display:inline"
       d="m 212.7345,10.05964 c -34.4709,-56.34538 -71.7495,-12.36505 -71.75,-0.5"
       id="path3950-3"
       inkscape:connector-curvature="0"
       sodipodi:nodetypes="cc"
       inkscape:export-filename="C:\Users\rick\Desktop\rick.png"
       inkscape:export-xdpi="90"
       inkscape:export-ydpi="90" />
    <path
       style="fill:#c87137;stroke:#000000;stroke-width:8.05759525;stroke-linecap:butt;stroke-linejoin:miter;stroke-miterlimit:4;stroke-opacity:1;stroke-dasharray:none;display:inline"
       d="m 509.4929,-316.1284 c 73.4522,47.3303 122.32194,113.869 145.25244,200.67594 C 795.19795,-245.0707 650.17604,-419.553 509.4929,-316.1284 z"
       id="path5068-5"
       inkscape:connector-curvature="0"
       sodipodi:nodetypes="ccc" />
    <path
       style="fill:#deaa87;stroke:#000000;stroke-width:4.02879763;stroke-linecap:butt;stroke-linejoin:miter;stroke-miterlimit:4;stroke-opacity:1;stroke-dasharray:none;display:inline"
       d="m 553.7566,-282.3696 c 33.4729,24.513 73.07754,76.439 86.29894,119.93494 85.60621,-80.84764 -0.5522,-184.44464 -86.29894,-119.93494 z"
       id="path5068-1-0"
       inkscape:connector-curvature="0"
       sodipodi:nodetypes="ccc" />
    <path
       style="fill:#000000;stroke:#000000;stroke-width:0.92746121px;stroke-linecap:butt;stroke-linejoin:miter;stroke-opacity:1"
       d="m -9.0788,1744.1977 c -470.5597,66.7685 -314.7659,211.9427 -55.3279,67.9906 19.2753,-10.6951 39.1227,-22.9862 59.3279,-37.0239 l -16,79.1369 68,-3.4407 -32.5704,-107.9951 z"
       id="path4383-1"
       inkscape:connector-curvature="0"
       sodipodi:nodetypes="csccccc"
       inkscape:export-filename="C:\Users\rick\Desktop\rick.png"
       inkscape:export-xdpi="90"
       inkscape:export-ydpi="90" />
    <path
       style="fill:#000000;stroke:#000000;stroke-width:0.92746121px;stroke-linecap:butt;stroke-linejoin:miter;stroke-opacity:1"
       d="m 322.5768,1756.2602 c 470.55965,66.7684 314.76594,211.9426 55.3279,67.9906 -19.2753,-10.6951 -39.1227,-22.9862 -59.3279,-37.024 l 16,79.137 -68,-3.4408 32.5705,-107.9951 z"
       id="path4383-2-2"
       inkscape:connector-curvature="0"
       sodipodi:nodetypes="csccccc"
       inkscape:export-filename="C:\Users\rick\Desktop\rick.png"
       inkscape:export-xdpi="90"
       inkscape:export-ydpi="90" />
  </g>
  <g
     inkscape:groupmode="layer"
     id="layer5"
     inkscape:label="Layer"
     style="display:inline" />
  <g
     inkscape:groupmode="layer"
     id="layer14"
     inkscape:label="dress"
     style="display:inline" />
  <g
     inkscape:groupmode="layer"
     id="layer1"
     inkscape:label="head"
     style="display:inline" />
  <g
     inkscape:groupmode="layer"
     id="layer9"
     inkscape:label="eyeshadow"
     style="display:inline" />
  <g
     inkscape:groupmode="layer"
     id="layer3"
     inkscape:label="eyes"
     style="display:inline" />
  <g
     inkscape:groupmode="layer"
     id="layer7"
     inkscape:label="eyebrows"
     style="display:inline" />
  <g
     inkscape:groupmode="layer"
     id="layer6"
     inkscape:label="quif"
     style="display:inline" />
  <g
     inkscape:groupmode="layer"
     id="layer13"
     inkscape:label="tshirt"
     style="display:none">
    <path
       style="fill:#ffffff;stroke:#000000;stroke-width:10;stroke-linecap:butt;stroke-linejoin:miter;stroke-miterlimit:4;stroke-opacity:1;stroke-dasharray:none"
       d="m -16,526 c 255.39744,45.19978 404.02258,24.18416 544,-16 -26.53753,46.05875 -56.26566,98.27904 -76.41535,159.8641 C 414.18851,784.16084 377.78463,994.7139 488,1194 488,1194 201.30454,1085.3831 68,1210 190.17926,866.93822 -10.383167,665.34176 -16,526 z"
       id="path5168"
       inkscape:connector-curvature="0"
       sodipodi:nodetypes="ccsccc" />
  </g>
  <g
     inkscape:groupmode="layer"
     id="layer11"
     inkscape:label="neck"
     style="display:inline" />
  <g
     inkscape:groupmode="layer"
     id="layer2"
     inkscape:label="mouth"
     style="display:inline" />
  <g
     inkscape:groupmode="layer"
     id="layer10"
     inkscape:label="nose"
     style="display:inline" />
</svg>
