<?xml version="1.0" encoding="UTF-8" standalone="no"?>
<!-- Created with Inkscape (http://www.inkscape.org/) -->

<svg
   xmlns:dc="http://purl.org/dc/elements/1.1/"
   xmlns:cc="http://creativecommons.org/ns#"
   xmlns:rdf="http://www.w3.org/1999/02/22-rdf-syntax-ns#"
   xmlns:svg="http://www.w3.org/2000/svg"
   xmlns="http://www.w3.org/2000/svg"
   xmlns:sodipodi="http://sodipodi.sourceforge.net/DTD/sodipodi-0.dtd"
   xmlns:inkscape="http://www.inkscape.org/namespaces/inkscape"
   id="svg3760"
   version="1.1"
   inkscape:version="0.48.2 r9819"
   width="490"
   height="400"
   sodipodi:docname="rick.svg">
  <metadata
     id="metadata3766">
    <rdf:RDF>
      <cc:Work
         rdf:about="">
        <dc:format>image/svg+xml</dc:format>
        <dc:type
           rdf:resource="http://purl.org/dc/dcmitype/StillImage" />
        <dc:title></dc:title>
      </cc:Work>
    </rdf:RDF>
  </metadata>
  <defs
     id="defs3764">
    <inkscape:path-effect
       effect="skeletal"
       id="path-effect4033"
       is_visible="true"
       pattern="m -96.909742,-243.07029 c 0,-2.76 2.24,-5 5.000003,-5 2.76,0 5,2.24 5,5 0,2.76 -2.24,5 -5,5 -2.760003,0 -5.000003,-2.24 -5.000003,-5 z"
       copytype="single_stretched"
       prop_scale="1"
       scale_y_rel="false"
       spacing="0"
       normal_offset="0"
       tang_offset="0"
       prop_units="false"
       vertical_pattern="false"
       fuse_tolerance="0" />
    <inkscape:path-effect
       effect="skeletal"
       id="path-effect4033-1"
       is_visible="true"
       pattern="m -308.33466,-316.6094 c 0,-2.76 2.24,-5 5,-5 2.76,0 5,2.24 5,5 0,2.76 -2.24,5 -5,5 -2.76,0 -5,-2.24 -5,-5 z"
       copytype="single_stretched"
       prop_scale="1"
       scale_y_rel="false"
       spacing="0"
       normal_offset="0"
       tang_offset="0"
       prop_units="false"
       vertical_pattern="false"
       fuse_tolerance="0" />
  </defs>
  <sodipodi:namedview
     pagecolor="#ffffff"
     bordercolor="#666666"
     borderopacity="1"
     objecttolerance="10"
     gridtolerance="10"
     guidetolerance="10"
     inkscape:pageopacity="0"
     inkscape:pageshadow="2"
     inkscape:window-width="1920"
     inkscape:window-height="1005"
     id="namedview3762"
     showgrid="false"
     inkscape:zoom="0.25"
     inkscape:cx="-309"
     inkscape:cy="-426.5"
     inkscape:window-x="-9"
     inkscape:window-y="-9"
     inkscape:window-maximized="1"
     inkscape:current-layer="layer14" />
  <g
     inkscape:groupmode="layer"
     id="layer5"
     inkscape:label="hair"
     style="display:inline">
    <path
       style="fill:#a05a2c;stroke:#000000;stroke-width:10;stroke-linecap:butt;stroke-linejoin:miter;stroke-miterlimit:4;stroke-opacity:1;stroke-dasharray:none"
       d="m -102.899,-303.9899 c -38.2792,-461.52207 460.46961,-403.07636 440.50002,-349.99999 352.63587,59.57978 340.32771,384.04511 168.06963,590.79918 -10.372,12.44907 70.04831,136.49477 57.44281,148.03875 C 409.67191,225.36819 22.2359,245.54703 -107.1054,59.9824 -120.0348,41.43267 -26.1262,-53.29135 -37.222,-76.30381 c -32.2727,-66.933 -54.1232,-119.22547 -65.677,-227.68609 z"
       id="path3952-4"
       inkscape:connector-curvature="0"
       sodipodi:nodetypes="ccssssc"
       inkscape:export-filename="C:\Users\rick\Desktop\rick.png"
       inkscape:export-xdpi="90"
       inkscape:export-ydpi="90" />
    <path
       style="fill:#febe8e;fill-opacity:1;stroke:#000000;stroke-width:10;stroke-linecap:butt;stroke-linejoin:miter;stroke-miterlimit:4;stroke-opacity:1;stroke-dasharray:none"
       d="m 454,-270 c 71.47127,1.41654 63.44556,77.72768 -12,88 z"
       id="path4241"
       inkscape:connector-curvature="0"
       sodipodi:nodetypes="ccc"
       inkscape:export-filename="C:\Users\rick\Desktop\rick.png"
       inkscape:export-xdpi="90"
       inkscape:export-ydpi="90" />
    <path
       style="fill:#febe8e;fill-opacity:1;stroke:#000000;stroke-width:10;stroke-linecap:butt;stroke-linejoin:miter;stroke-miterlimit:4;stroke-opacity:1;stroke-dasharray:none;display:inline"
       d="m 12.6746,-276 c -71.4713,1.41654 -63.4455,77.72768 12,88 z"
       id="path4241-1"
       inkscape:connector-curvature="0"
       sodipodi:nodetypes="ccc"
       inkscape:export-filename="C:\Users\rick\Desktop\rick.png"
       inkscape:export-xdpi="90"
       inkscape:export-ydpi="90" />
  </g>
  <g
     inkscape:groupmode="layer"
     id="layer15"
     inkscape:label="trowsers"
     style="display:inline">
    <path
       style="fill:#000000;stroke:#000000;stroke-width:1px;stroke-linecap:butt;stroke-linejoin:miter;stroke-opacity:1"
       d="m 104,908 c 43.17952,280.096 4.21825,767.2164 -41.847146,1041.9268 L 136,1930 c 28.61762,-234.007 26.04235,-669.8987 124,-894 127.71671,129.3016 109.9367,649.749 140,906 l 78.44951,20.161 C 388.53637,1676.2763 428.77715,1179.615 456,888 z"
       id="path4286"
       inkscape:connector-curvature="0"
       sodipodi:nodetypes="cccccccc"
       inkscape:export-filename="C:\Users\rick\Desktop\rick.png"
       inkscape:export-xdpi="90"
       inkscape:export-ydpi="90" />
  </g>
  <g
     inkscape:groupmode="layer"
     id="layer17"
     inkscape:label="arms">
    <path
       style="fill:#febe8e;fill-opacity:1;stroke:#000000;stroke-width:11.52358723px;stroke-linecap:butt;stroke-linejoin:miter;stroke-opacity:1"
       d="M -416.10864,636.23083 61.3493,415.25232 c 0,0 -101.35481,-90.05455 -107.24703,-82.565 -5.89276,7.48856 -420.68901,255.04225 -420.68901,255.04225 0,0 -96.88956,-44.13489 -134.13146,-55.37079 -151.9204,74.68852 0.7668,83.87268 69.5318,88.581 l -152.6604,71.7931 -91.5025,152.94808 c 0,0 9.2433,48.28798 69.4981,-17.64904 28.0035,-32.23247 37.1518,-52.01551 60.5527,-90.94355 7.2372,-12.03866 49.9399,-36.19011 49.9399,-36.19011 l 9.9059,6.54012 c -85.1256,57.24302 -183.8119,330.06072 -67.8333,243.49092 l 89.952,-205.17989 4.424,7.66238 c -24.1629,66.55863 -50.2309,133.39145 -50.0454,196.44121 52.0905,57.8351 83.372,-144.00246 86.1298,-176.40946 l 10.7274,-6.19344 c 1.8754,54.80625 -11.0419,142.88024 14.25388,145.01644 83.36068,13.8363 7.25278,-86.23396 27.3594,-164.95404 85.47259,-42.91001 81.86457,-24.52829 54.37628,-111.08167 z"
       id="path4324"
       inkscape:connector-curvature="0"
       sodipodi:nodetypes="ccsccccccsccccccccccc"
       inkscape:export-filename="C:\Users\rick\Desktop\rick.png"
       inkscape:export-xdpi="90"
       inkscape:export-ydpi="90" />
    <path
       style="fill:#febe8e;fill-opacity:1;stroke:#000000;stroke-width:11.52358723px;stroke-linecap:butt;stroke-linejoin:miter;stroke-opacity:1"
       d="M 864.10864,594.04179 386.6507,373.06328 c 0,0 101.35481,-90.05455 107.24703,-82.565 5.89276,7.48856 420.68901,255.04225 420.68901,255.04225 0,0 96.88956,-44.13489 134.13146,-55.37079 151.9204,74.68852 -0.7668,83.87268 -69.5318,88.581 l 152.6604,71.7931 91.5025,152.94808 c 0,0 -9.2433,48.28798 -69.4981,-17.64904 -28.0035,-32.23247 -37.1518,-52.01551 -60.5527,-90.94355 -7.2372,-12.03866 -49.9399,-36.19011 -49.9399,-36.19011 l -9.9059,6.54012 c 85.1256,57.24302 183.8119,330.06072 67.8333,243.49092 l -89.952,-205.17989 -4.424,7.66238 c 24.1629,66.55863 50.2309,133.39145 50.0454,196.44121 -52.0905,57.8351 -83.372,-144.00246 -86.1298,-176.40946 l -10.7274,-6.19344 c -1.8754,54.80625 11.0419,142.88024 -14.25388,145.01644 -83.36068,13.8363 -7.25278,-86.23396 -27.3594,-164.95404 -85.47259,-42.91001 -81.86457,-24.52829 -54.37628,-111.08167 z"
       id="path4324-4"
       inkscape:connector-curvature="0"
       sodipodi:nodetypes="ccsccccccsccccccccccc"
       inkscape:export-filename="C:\Users\rick\Desktop\rick.png"
       inkscape:export-xdpi="90"
       inkscape:export-ydpi="90" />
  </g>
  <g
     inkscape:groupmode="layer"
     id="layer16"
     inkscape:label="Jacket">
    <path
       style="fill:#000000;stroke:#000000;stroke-width:1px;stroke-linecap:butt;stroke-linejoin:miter;stroke-opacity:1"
       d="M 184,128 -88,328 16,412 C 4.0120637,583.23982 21.043738,758.6253 -60,920 l 660,-8 C 486.16427,745.78606 508.61577,560.10251 464,384 L 560,304 296,120 z"
       id="path4309"
       inkscape:connector-curvature="0"
       sodipodi:nodetypes="ccccccccc"
       inkscape:export-filename="C:\Users\rick\Desktop\rick.png"
       inkscape:export-xdpi="90"
       inkscape:export-ydpi="90" />
  </g>
  <g
     inkscape:groupmode="layer"
     id="layer14"
     inkscape:label="tOP">
    <path
       style="fill:#ffffff;stroke:#000000;stroke-width:10;stroke-linecap:butt;stroke-linejoin:miter;stroke-miterlimit:4;stroke-opacity:1;stroke-dasharray:none"
       d="m 185.62429,134 c -215.52685,122.18922 -129.351645,524.55958 -118,750 109.64019,46.05295 227.21739,76.2319 400,-4 4.70775,-269.70273 38.38418,-607.88217 -174,-752 z"
       id="path4264"
       inkscape:connector-curvature="0"
       sodipodi:nodetypes="ccccc"
       inkscape:export-filename="C:\Users\rick\Desktop\rick.png"
       inkscape:export-xdpi="90"
       inkscape:export-ydpi="90" />
    <path
       style="fill:#ffcc00;stroke:#000000;stroke-width:5;stroke-linecap:butt;stroke-linejoin:miter;stroke-miterlimit:4;stroke-opacity:1;stroke-dasharray:none;display:inline"
       d="m 187.5134,856.72577 0,119.76083 c 63.05402,25.8949 116.40016,12.95826 168.9732,-3.07079 L 353.10714,847.5134 c -55.19791,-9.0473 -110.39583,-13.36496 -165.59374,9.21237 z"
       id="path4288"
       inkscape:connector-curvature="0"
       sodipodi:nodetypes="ccccc"
       inkscape:export-filename="C:\Users\rick\Desktop\rick.png"
       inkscape:export-xdpi="90"
       inkscape:export-ydpi="90" />
  </g>
  <g
     inkscape:groupmode="layer"
     id="layer18"
     inkscape:label="shoes">
    <path
       style="fill:#000000;stroke:#000000;stroke-width:1px;stroke-linecap:butt;stroke-linejoin:miter;stroke-opacity:1"
       d="m 96,1926 c -470.55966,77.6211 -314.7659,246.3921 -55.327913,79.0419 C 59.947403,1992.6084 79.794831,1978.3195 100,1962 l -16,92 68,-4 -32.57044,-125.5488 z"
       id="path4383"
       inkscape:connector-curvature="0"
       sodipodi:nodetypes="csccccc"
       inkscape:export-filename="C:\Users\rick\Desktop\rick.png"
       inkscape:export-xdpi="90"
       inkscape:export-ydpi="90" />
    <path
       style="fill:#000000;stroke:#000000;stroke-width:1px;stroke-linecap:butt;stroke-linejoin:miter;stroke-opacity:1"
       d="m 427.65561,1940.0231 c 470.55966,77.6211 314.7659,246.3921 55.32791,79.0419 -19.27531,-12.4335 -39.12274,-26.7224 -59.32791,-43.0419 l 16,92 -68,-4 32.57044,-125.5488 z"
       id="path4383-2"
       inkscape:connector-curvature="0"
       sodipodi:nodetypes="csccccc"
       inkscape:export-filename="C:\Users\rick\Desktop\rick.png"
       inkscape:export-xdpi="90"
       inkscape:export-ydpi="90" />
  </g>
  <g
     inkscape:groupmode="layer"
     id="layer13"
     inkscape:label="BODY">
    <path
       style="fill:#febe8e;fill-opacity:1;stroke:#000000;stroke-width:5;stroke-linecap:butt;stroke-linejoin:miter;stroke-miterlimit:4;stroke-opacity:1;stroke-dasharray:none"
       d="m 182,26 8,102 C -88.918454,359.36999 583.31583,370.70092 292,126 L 286,26 z"
       id="path4262"
       inkscape:connector-curvature="0"
       sodipodi:nodetypes="ccccc"
       inkscape:export-filename="C:\Users\rick\Desktop\rick.png"
       inkscape:export-xdpi="90"
       inkscape:export-ydpi="90" />
  </g>
  <g
     style="display:none"
     inkscape:label="hair2"
     id="g5029"
     inkscape:groupmode="layer">
    <path
       sodipodi:nodetypes="cccc"
       inkscape:connector-curvature="0"
       id="path5031"
       d="M 263.04372,67.306259 C 157.76211,-96.673192 546.91457,-179.11147 456.43742,204.83853 427.48427,289.11317 333.7544,236.30478 333.7544,236.30478 265.28205,183.21948 278.71947,126.25784 263.04372,67.306259 z"
       style="fill:#000000;stroke:#000000;stroke-width:1px;stroke-linecap:butt;stroke-linejoin:miter;stroke-opacity:1" />
  </g>
  <g
     inkscape:groupmode="layer"
     id="layer7"
     inkscape:label="body" />
  <g
     inkscape:groupmode="layer"
     id="layer3"
     inkscape:label="Head"
     style="display:inline">
    <path
       style="fill:#febe8e;fill-opacity:1;stroke:#000000;stroke-width:10;stroke-linecap:butt;stroke-linejoin:miter;stroke-miterlimit:4;stroke-opacity:1;stroke-dasharray:none"
       d="m 6.7563,-425.27672 c -19.6123,534.89142 354.93729,638.62721 433.79798,229.87339 12.70812,-65.86924 17.73774,-145.04692 12.20204,-237.87339 -55.64937,-23.35373 -317.23152,54.80501 -380.75002,-119 0,0 -69.7289,-11.84674 -65.25,127 z"
       id="path3091-1"
       inkscape:connector-curvature="0"
       sodipodi:nodetypes="csccc"
       inkscape:export-filename="C:\Users\rick\Desktop\rick.png"
       inkscape:export-xdpi="90"
       inkscape:export-ydpi="90" />
  </g>
  <g
     inkscape:groupmode="layer"
     id="layer10"
     inkscape:label="sidies" />
  <g
     inkscape:groupmode="layer"
     id="layer6"
     inkscape:label="Bandana"
     style="display:none">
    <path
       style="fill:#ff0000;stroke:#000000;stroke-width:1px;stroke-linecap:butt;stroke-linejoin:miter;stroke-opacity:1"
       d="M 262.33662,72.963114 C 240.24854,50.899925 236.70229,24.665899 242.89118,-3.7579724 286.52424,-30.097981 362.99703,-38.330506 420.75975,-42.063058 c 66.26441,38.2577731 13.96983,97.995392 11.66726,96.873628 z"
       id="path3938"
       inkscape:connector-curvature="0"
       sodipodi:nodetypes="ccccc" />
  </g>
  <g
     inkscape:groupmode="layer"
     id="layer9"
     inkscape:label="shading"
     style="opacity:0.50936327" />
  <g
     inkscape:groupmode="layer"
     id="layer8"
     inkscape:label="nose" />
  <g
     inkscape:groupmode="layer"
     id="layer12"
     inkscape:label="mouth">
    <path
       style="fill:none;stroke:#000000;stroke-width:3.90622759;stroke-linecap:butt;stroke-linejoin:miter;stroke-miterlimit:4;stroke-opacity:1;stroke-dasharray:none;display:inline"
       d="m 141.0335,-161.43184 c 2.7994,-0.4016 26.0123,-13.61504 16.9185,39.93332 -1.6036,9.44263 29.60285,-2.39784 37.01718,-3.49287 99.99734,-14.76912 99.99734,-17.19005 99.99734,-17.19005"
       id="path4989-1-6-1"
       inkscape:connector-curvature="0"
       sodipodi:nodetypes="cssc"
       inkscape:export-filename="C:\Users\rick\Desktop\rick.png"
       inkscape:export-xdpi="90"
       inkscape:export-ydpi="90" />
    <path
       style="fill:#000000;stroke:#000000;stroke-width:1.55107272px;stroke-linecap:butt;stroke-linejoin:miter;stroke-opacity:1;display:inline"
       d="m 203.41775,-123.78837 90.00727,-15.14379 c 10.89973,49.05723 -23.24522,101.59339 -80.29408,80.46386 0,0 1.57398,-43.62196 -9.71319,-65.32007 z"
       id="path5215-7-7"
       inkscape:connector-curvature="0"
       sodipodi:nodetypes="ccsc"
       inkscape:export-filename="C:\Users\rick\Desktop\rick.png"
       inkscape:export-xdpi="90"
       inkscape:export-ydpi="90" />
    <path
       style="fill:#ffffff;stroke:#000000;stroke-width:3.10214543;stroke-linecap:butt;stroke-linejoin:miter;stroke-miterlimit:4;stroke-opacity:1;stroke-dasharray:none;display:inline"
       d="m 171.25602,-118.52339 5.87802,34.38048 c 161.53527,-6.76415 101.70268,-39.26156 114.62158,-55.66363 z"
       id="path5294-9-4"
       inkscape:connector-curvature="0"
       sodipodi:nodetypes="cccc"
       inkscape:export-filename="C:\Users\rick\Desktop\rick.png"
       inkscape:export-xdpi="90"
       inkscape:export-ydpi="90" />
  </g>
  <g
     inkscape:groupmode="layer"
     id="layer4"
     inkscape:label="eyes"
     style="display:inline">
    <path
       sodipodi:type="arc"
       style="opacity:0.50936327;fill:#deaa87;fill-opacity:1;stroke:none;display:inline"
       id="path4180-0-5-1-1"
       sodipodi:cx="377"
       sodipodi:cy="476.36218"
       sodipodi:rx="123"
       sodipodi:ry="98"
       d="m 500,476.36218 a 123,98 0 1 1 -246,0 123,98 0 1 1 246,0 z"
       transform="matrix(0.53073912,0,0,0.7461479,122.0363,-633.43664)"
       inkscape:export-filename="C:\Users\rick\Desktop\rick.png"
       inkscape:export-xdpi="90"
       inkscape:export-ydpi="90" />
    <path
       sodipodi:type="arc"
       style="opacity:0.50936327;fill:#deaa87;fill-opacity:1;stroke:none;display:inline"
       id="path4180-0-5-1-1-1"
       sodipodi:cx="377"
       sodipodi:cy="476.36218"
       sodipodi:rx="123"
       sodipodi:ry="98"
       d="m 500,476.36218 a 123,98 0 1 1 -246,0 123,98 0 1 1 246,0 z"
       transform="matrix(0.53073912,0,0,0.7461479,-82.7136,-639.43664)"
       inkscape:export-filename="C:\Users\rick\Desktop\rick.png"
       inkscape:export-xdpi="90"
       inkscape:export-ydpi="90" />
    <path
       sodipodi:type="arc"
       style="fill:#ffffff;stroke:#000000;stroke-width:4.60721874;stroke-linecap:round;stroke-linejoin:round;stroke-miterlimit:4;stroke-opacity:1;stroke-dasharray:none;stroke-dashoffset:0;display:inline"
       id="path3901-4-6-0-5"
       sodipodi:cx="314.75"
       sodipodi:cy="415.86218"
       sodipodi:rx="29.75"
       sodipodi:ry="28.5"
       d="m 344.5,415.86218 a 29.75,28.5 0 1 1 -59.5,0 29.75,28.5 0 1 1 59.5,0 z"
       transform="matrix(0.99886596,0,0,1.1791121,-192.2681,-793.07839)"
       inkscape:export-filename="C:\Users\rick\Desktop\rick.png"
       inkscape:export-xdpi="90"
       inkscape:export-ydpi="90" />
    <path
       sodipodi:type="arc"
       style="fill:#ffffff;stroke:#000000;stroke-width:4.46592188;stroke-linecap:round;stroke-linejoin:round;stroke-miterlimit:4;stroke-opacity:1;stroke-dasharray:none;stroke-dashoffset:0;display:inline"
       id="path3901-4-6-0-4-7"
       sodipodi:cx="314.75"
       sodipodi:cy="415.86218"
       sodipodi:rx="29.75"
       sodipodi:ry="28.5"
       d="m 344.5,415.86218 a 29.75,28.5 0 1 1 -59.5,0 29.75,28.5 0 1 1 59.5,0 z"
       transform="matrix(1.030469,0,0,1.216418,-7.2151,-809.46946)"
       inkscape:export-filename="C:\Users\rick\Desktop\rick.png"
       inkscape:export-xdpi="90"
       inkscape:export-ydpi="90" />
    <path
       sodipodi:type="arc"
       style="fill:#000000;fill-opacity:1;stroke:#808000;stroke-width:2;stroke-linecap:round;stroke-linejoin:round;stroke-miterlimit:4;stroke-opacity:1;stroke-dasharray:none;display:inline"
       id="path4959-1-5-9-2"
       sodipodi:cx="309.35922"
       sodipodi:cy="92.055"
       sodipodi:rx="6.3639612"
       sodipodi:ry="6.3639612"
       d="m 315.72318,92.055 a 6.3639612,6.3639612 0 1 1 -12.72792,0 6.3639612,6.3639612 0 1 1 12.72792,0 z"
       transform="matrix(2.2081839,0,0,2.4601187,-561.7567,-529.10152)"
       inkscape:export-filename="C:\Users\rick\Desktop\rick.png"
       inkscape:export-xdpi="90"
       inkscape:export-ydpi="90" />
    <path
       sodipodi:type="arc"
       style="fill:#000000;fill-opacity:1;stroke:#808000;stroke-width:2;stroke-linecap:round;stroke-linejoin:round;stroke-miterlimit:4;stroke-opacity:1;stroke-dasharray:none;display:inline"
       id="path4959-1-5-9-8-6"
       sodipodi:cx="309.35922"
       sodipodi:cy="92.055"
       sodipodi:rx="6.3639612"
       sodipodi:ry="6.3639612"
       d="m 315.72318,92.055 a 6.3639612,6.3639612 0 1 1 -12.72792,0 6.3639612,6.3639612 0 1 1 12.72792,0 z"
       transform="matrix(2.2780485,0,0,2.5379542,-385.0634,-540.07948)"
       inkscape:export-filename="C:\Users\rick\Desktop\rick.png"
       inkscape:export-xdpi="90"
       inkscape:export-ydpi="90" />
  </g>
  <g
     inkscape:groupmode="layer"
     id="layer11"
     inkscape:label="eyebrows"
     style="display:inline">
    <path
       style="fill:#000000;stroke:#000000;stroke-width:1px;stroke-linecap:butt;stroke-linejoin:miter;stroke-opacity:1;display:inline"
       d="m 177.6139,-381.20243 c -49.5285,2.90476 -99.0571,20.71326 -148.5857,44.87005 l -3,-31 c 39.7198,-36.38532 88.2262,-53.44011 141.2472,-60.56284 z"
       id="path5485-8-5"
       inkscape:connector-curvature="0"
       sodipodi:nodetypes="ccccc"
       inkscape:export-filename="C:\Users\rick\Desktop\rick.png"
       inkscape:export-xdpi="90"
       inkscape:export-ydpi="90" />
    <path
       style="fill:#000000;stroke:#000000;stroke-width:1px;stroke-linecap:butt;stroke-linejoin:miter;stroke-opacity:1;display:inline"
       d="m 265.386,-364.47484 c 49.5286,2.90477 99.0572,20.71327 148.5858,44.87006 l 3,-31 c -39.7198,-36.38533 -88.2262,-53.44011 -141.2472,-60.56284 z"
       id="path5485-4-2-5"
       inkscape:connector-curvature="0"
       sodipodi:nodetypes="ccccc"
       inkscape:export-filename="C:\Users\rick\Desktop\rick.png"
       inkscape:export-xdpi="90"
       inkscape:export-ydpi="90" />
  </g>
  <path
     style="fill:none;stroke:#000000;stroke-width:5;stroke-linecap:butt;stroke-linejoin:miter;stroke-miterlimit:4;stroke-opacity:1;stroke-dasharray:none"
     d="m 259.00873,-240 c -28.88468,79.67141 -87.44049,17.52951 -89.25,5.5"
     id="path3950"
     inkscape:connector-curvature="0"
     sodipodi:nodetypes="cc"
     inkscape:export-filename="C:\Users\rick\Desktop\rick.png"
     inkscape:export-xdpi="90"
     inkscape:export-ydpi="90" />
  <g
     inkscape:groupmode="layer"
     id="layer2"
     inkscape:label="eyes2"
     style="display:none" />
  <g
     inkscape:groupmode="layer"
     id="layer1"
     inkscape:label="beard"
     style="display:inline">
    <path
       style="fill:#d45500;stroke:#000000;stroke-width:5;stroke-linecap:butt;stroke-linejoin:miter;stroke-miterlimit:4;stroke-opacity:1;stroke-dasharray:none"
       d="m 194.25,-187.75 c -77.0153,35.24042 -86.732,31.8801 -56.6367,107.40271 -16.773,-69.15743 2.2666,-62.27657 65.3867,-77.40271 z"
       id="path3957"
       inkscape:connector-curvature="0"
       sodipodi:nodetypes="cccc"
       inkscape:export-filename="C:\Users\rick\Desktop\rick.png"
       inkscape:export-xdpi="90"
       inkscape:export-ydpi="90" />
    <path
       style="fill:#d45500;stroke:#000000;stroke-width:5;stroke-linecap:butt;stroke-linejoin:miter;stroke-miterlimit:4;stroke-opacity:1;stroke-dasharray:none"
       d="m 228,-151.5 3.75,-31.25 c 93.93106,7.19889 103.41633,-4.47176 74.77736,84.34668 C 314.70216,-168.52635 290.01609,-153.08561 228,-151.5 z"
       id="path3959"
       inkscape:connector-curvature="0"
       sodipodi:nodetypes="cccc"
       inkscape:export-filename="C:\Users\rick\Desktop\rick.png"
       inkscape:export-xdpi="90"
       inkscape:export-ydpi="90" />
    <path
       style="fill:#d45500;stroke:#000000;stroke-width:5;stroke-linecap:round;stroke-linejoin:round;stroke-miterlimit:4;stroke-opacity:1;stroke-dasharray:none"
       d="M 230.5,-47.75 C 192.27913,78.71071 80.116,-96.34978 44.9878,-137.85976 136.1374,122.48861 347.0419,112.50086 420.5,-125.25 c -67.37871,66.19773 -132.55546,189.65362 -190,77.5 z"
       id="path3961"
       inkscape:connector-curvature="0"
       sodipodi:nodetypes="cccc"
       inkscape:export-filename="C:\Users\rick\Desktop\rick.png"
       inkscape:export-xdpi="90"
       inkscape:export-ydpi="90" />
  </g>
</svg>
